<svg height="512pt" viewBox="0 -53 512 511" width="512pt" xmlns="http://www.w3.org/2000/svg"><path d="m512 132.765625v226.132813c0 25.816406-21.121094 46.933593-46.933594 46.933593h-332.800781c-24.957031 0-45.4375-19.625-46.71875-44.160156-.214844-.851563-.214844-1.917969-.214844-2.773437v-226.132813c0-25.8125 21.121094-46.933594 46.933594-46.933594h332.800781c25.8125 0 46.933594 21.121094 46.933594 46.933594zm0 0" fill="#b0bec5"/><path d="m426.667969 47.433594v226.132812c0 25.8125-21.121094 46.933594-46.933594 46.933594h-332.800781c-1.707032 0-3.414063 0-5.332032-.214844-22.402343-2.558594-40.109374-21.117187-41.386718-43.945312-.214844-.851563-.214844-1.917969-.214844-2.773438v-226.132812c0-25.8125 21.121094-46.933594 46.933594-46.933594h332.800781c25.8125 0 46.933594 21.121094 46.933594 46.933594zm0 0" fill="#eceff1"/><path d="m149.332031 85.832031c0 23.566407-19.101562 42.667969-42.664062 42.667969-23.566407 0-42.667969-19.101562-42.667969-42.667969 0-23.5625 19.101562-42.664062 42.667969-42.664062 23.5625 0 42.664062 19.101562 42.664062 42.664062zm0 0" fill="#ffc107"/><path d="m426.667969 212.554688v61.011718c0 25.8125-21.121094 46.933594-46.933594 46.933594h-332.800781c-1.707032 0-3.414063 0-5.332032-.214844l219.945313-219.945312c14.507813-14.507813 38.398437-14.507813 52.90625 0zm0 0" fill="#388e3c"/><path d="m299.945312 320.5h-253.011718c-1.707032 0-3.414063 0-5.332032-.214844-22.402343-2.558594-40.109374-21.117187-41.386718-43.945312l101.332031-101.332032c14.507813-14.507812 38.398437-14.507812 52.90625 0zm0 0" fill="#4caf50"/></svg>